<svg width="493" height="479" viewBox="0 0 493 479" fill="none" xmlns="http://www.w3.org/2000/svg">
<path fill-rule="evenodd" clip-rule="evenodd" d="M125.966 290.893C125.966 290.893 177.419 35.8338 457.437 0.795532L387.36 70.872L492.379 105.814C492.379 105.814 288.485 119.734 158.316 310.092L130.861 316.14L122.222 306.54C122.798 302.22 124.046 297.037 125.966 290.893Z" fill="#546E7A"/>
<path fill-rule="evenodd" clip-rule="evenodd" d="M125.966 290.893C125.966 290.893 177.419 35.8338 457.437 0.795532L387.36 70.872L492.379 105.814C492.379 105.814 288.485 119.734 158.316 310.092L130.861 316.14L122.222 306.54C122.798 302.22 124.046 297.037 125.966 290.893Z" fill="#546E7A"/>
<path fill-rule="evenodd" clip-rule="evenodd" d="M387.456 70.776L492.379 105.814C492.379 105.814 288.485 119.734 158.316 310.092L136.717 314.892C158.22 253.839 227.145 120.981 387.456 70.776Z" fill="#455A64"/>
<path d="M92.4633 287.821L127.502 326.603L176.363 315.852L199.018 310.86L187.498 331.019L161.292 376.425L186.539 419.43L198.25 439.397L175.691 434.598L124.43 423.846L91.3113 461.188L75.9521 478.467L73.4562 455.429L67.8885 403.399L22.1948 383.432L0.883881 374.217L22.0028 364.713L69.8084 343.306L74.6082 293.581L76.912 270.542L92.4633 287.821Z" fill="#FB8C00"/>
</svg>
